<svg width="1058" height="1058" viewBox="0 0 1058 1058" fill="none" xmlns="http://www.w3.org/2000/svg">
<rect width="1058" height="1058" fill="white"/>
<path d="M177.162 613.67C154.482 613.67 134.259 609.701 116.493 601.763C99.105 593.447 85.308 581.54 75.102 566.042C65.274 550.544 60.36 531.644 60.36 509.342V482.126H136.338V505.94C136.338 521.816 140.685 533.723 149.379 541.661C158.451 549.221 169.602 553.001 182.832 553.001C195.684 553.001 206.646 549.032 215.718 541.094C224.79 533.156 229.326 521.438 229.326 505.94V219.038H309.84V509.342C309.84 532.022 304.548 551.111 293.964 566.609C283.38 582.107 269.016 593.825 250.872 601.763C232.728 609.701 211.938 613.67 188.502 613.67H177.162ZM398.638 608V219.038H662.293L653.221 282.542H479.719V377.798H640.18V440.168H479.719V542.228H655.489L664.561 608H398.638ZM729.544 608V219.038H807.79L905.314 419.189L923.458 461.147H925.726V219.038H1000.57V608H922.324L822.532 405.581L807.223 368.159L804.388 368.726V608H729.544Z" fill="black"/>
<path d="M101.063 796.969C68.1844 796.969 51.7453 773.344 51.7453 726.094C51.7453 677.531 68.1844 653.25 101.063 653.25C133.941 653.25 150.38 677.531 150.38 726.094C150.38 773.344 133.941 796.969 101.063 796.969ZM100.866 744.108C96.9281 744.108 93.7453 742.467 91.3172 739.186C88.9547 735.905 87.7734 731.541 87.7734 726.094C87.7734 720.647 88.9547 716.283 91.3172 713.002C93.7453 709.72 96.9281 708.08 100.866 708.08C104.803 708.08 107.986 709.72 110.414 713.002C112.842 716.283 114.056 720.647 114.056 726.094C114.056 731.541 112.842 735.905 110.414 739.186C107.986 742.467 104.803 744.108 100.866 744.108ZM101.063 773.442C116.025 773.442 123.506 757.659 123.506 726.094C123.506 693.216 116.025 676.777 101.063 676.777C85.8375 676.777 78.225 693.216 78.225 726.094C78.225 757.659 85.8375 773.442 101.063 773.442ZM212.884 795V655.219H239.462V795H212.884ZM179.218 795V771.966H214.852V795H179.218ZM237.493 795V771.966H269.387V795H237.493ZM181.187 691.837V667.031L212.884 655.219V680.419L181.187 691.837ZM345.376 796.969C312.498 796.969 296.059 773.344 296.059 726.094C296.059 677.531 312.498 653.25 345.376 653.25C378.255 653.25 394.694 677.531 394.694 726.094C394.694 773.344 378.255 796.969 345.376 796.969ZM345.18 744.108C341.242 744.108 338.059 742.467 335.631 739.186C333.269 735.905 332.087 731.541 332.087 726.094C332.087 720.647 333.269 716.283 335.631 713.002C338.059 709.72 341.242 708.08 345.18 708.08C349.117 708.08 352.3 709.72 354.728 713.002C357.156 716.283 358.37 720.647 358.37 726.094C358.37 731.541 357.156 735.905 354.728 739.186C352.3 742.467 349.117 744.108 345.18 744.108ZM345.376 773.442C360.339 773.442 367.82 757.659 367.82 726.094C367.82 693.216 360.339 676.777 345.376 676.777C330.151 676.777 322.539 693.216 322.539 726.094C322.539 757.659 330.151 773.442 345.376 773.442ZM467.534 796.969C434.655 796.969 418.216 773.344 418.216 726.094C418.216 677.531 434.655 653.25 467.534 653.25C500.412 653.25 516.851 677.531 516.851 726.094C516.851 773.344 500.412 796.969 467.534 796.969ZM467.337 744.108C463.399 744.108 460.216 742.467 457.788 739.186C455.426 735.905 454.244 731.541 454.244 726.094C454.244 720.647 455.426 716.283 457.788 713.002C460.216 709.72 463.399 708.08 467.337 708.08C471.274 708.08 474.457 709.72 476.885 713.002C479.313 716.283 480.527 720.647 480.527 726.094C480.527 731.541 479.313 735.905 476.885 739.186C474.457 742.467 471.274 744.108 467.337 744.108ZM467.534 773.442C482.496 773.442 489.977 757.659 489.977 726.094C489.977 693.216 482.496 676.777 467.534 676.777C452.309 676.777 444.696 693.216 444.696 726.094C444.696 757.659 452.309 773.442 467.534 773.442ZM579.355 795V655.219H605.933V795H579.355ZM545.689 795V771.966H581.323V795H545.689ZM603.964 795V771.966H635.858V795H603.964ZM547.658 691.837V667.031L579.355 655.219V680.419L547.658 691.837ZM711.847 796.969C678.969 796.969 662.53 773.344 662.53 726.094C662.53 677.531 678.969 653.25 711.847 653.25C744.726 653.25 761.165 677.531 761.165 726.094C761.165 773.344 744.726 796.969 711.847 796.969ZM711.651 744.108C707.713 744.108 704.53 742.467 702.102 739.186C699.74 735.905 698.558 731.541 698.558 726.094C698.558 720.647 699.74 716.283 702.102 713.002C704.53 709.72 707.713 708.08 711.651 708.08C715.588 708.08 718.771 709.72 721.199 713.002C723.627 716.283 724.841 720.647 724.841 726.094C724.841 731.541 723.627 735.905 721.199 739.186C718.771 742.467 715.588 744.108 711.651 744.108ZM711.847 773.442C726.81 773.442 734.291 757.659 734.291 726.094C734.291 693.216 726.81 676.777 711.847 676.777C696.622 676.777 689.01 693.216 689.01 726.094C689.01 757.659 696.622 773.442 711.847 773.442ZM823.669 795V655.219H850.247V795H823.669ZM790.003 795V771.966H825.637V795H790.003ZM848.278 795V771.966H880.172V795H848.278ZM791.972 691.837V667.031L823.669 655.219V680.419L791.972 691.837ZM956.162 796.969C923.283 796.969 906.844 773.344 906.844 726.094C906.844 677.531 923.283 653.25 956.162 653.25C989.04 653.25 1005.48 677.531 1005.48 726.094C1005.48 773.344 989.04 796.969 956.162 796.969ZM955.965 744.108C952.027 744.108 948.844 742.467 946.416 739.186C944.054 735.905 942.872 731.541 942.872 726.094C942.872 720.647 944.054 716.283 946.416 713.002C948.844 709.72 952.027 708.08 955.965 708.08C959.902 708.08 963.085 709.72 965.513 713.002C967.941 716.283 969.155 720.647 969.155 726.094C969.155 731.541 967.941 735.905 965.513 739.186C963.085 742.467 959.902 744.108 955.965 744.108ZM956.162 773.442C971.124 773.442 978.605 757.659 978.605 726.094C978.605 693.216 971.124 676.777 956.162 676.777C940.937 676.777 933.324 693.216 933.324 726.094C933.324 757.659 940.937 773.442 956.162 773.442Z" fill="black"/>
</svg>
